<svg width="373" height="145" viewBox="0 0 373 145" fill="none" xmlns="http://www.w3.org/2000/svg">
<g clip-path="url(#clip0_1101_6980)">
<path d="M41.14 59.62L63.47 35.23L54.37 69.22H77.19L95.6 0.650024H70.43L49.27 24.74L41.04 0.650024H18.41L0 69.22H22.43L31.54 35.23L40.75 59.62H41.14Z" fill="white"/>
<path d="M172.13 69.28H195.05L208.28 20.1H226.15L231.57 0.710022H171.35L166.4 20.1H185.36L172.13 69.28Z" fill="white"/>
<path d="M104.64 75.54L83.48 99.63L75.25 75.54H52.63L34.21 144.1H56.64L65.75 110.11L74.96 134.5H75.35L97.68 110.11L88.58 144.1H111.4L129.81 75.54H104.64Z" fill="white"/>
<path d="M245.8 94.34L258.77 75.54H136.25L117.84 144.1H176.81L181.8 125.3H145.36L147.42 117.85H180.92L185.33 101.3H151.83L153.69 94.34H203.22L189.86 144.1H212.78L226.14 94.34H245.8Z" fill="white"/>
<path d="M337.9 75.54H314.98L297.73 139.77L287.92 75.56H265.19L217.87 144.1H242.78L269.69 101.98L271.55 118.64H265.35L254.98 134.9H272.82L274 144.1H298.39H356.69L361.98 124.51H324.77L337.9 75.54Z" fill="white"/>
<path d="M368.44 139.04V138.97C369.09 138.78 369.55 138.32 369.55 137.73C369.55 137.21 369.32 136.78 369.03 136.55C368.64 136.32 368.18 136.16 367.17 136.16C366.29 136.16 365.6 136.23 365.11 136.32V141.68H366.35V139.52H366.94C367.62 139.52 367.95 139.78 368.05 140.37C368.21 140.99 368.31 141.48 368.47 141.68H369.81C369.68 141.48 369.58 141.16 369.42 140.34C369.26 139.62 368.96 139.23 368.44 139.03V139.04ZM366.97 138.65H366.38V137.12C366.51 137.09 366.74 137.06 367.07 137.06C367.85 137.06 368.21 137.39 368.21 137.88C368.21 138.44 367.65 138.66 366.97 138.66V138.65Z" fill="white"/>
<path d="M367.2 133.52C364.13 133.52 361.68 135.91 361.68 138.88C361.68 141.85 364.13 144.3 367.2 144.3C370.27 144.3 372.69 141.92 372.69 138.88C372.69 135.84 370.31 133.52 367.2 133.52ZM367.23 143.16C364.81 143.16 363.05 141.27 363.05 138.88C363.05 136.49 364.81 134.6 367.2 134.6C369.59 134.6 371.32 136.53 371.32 138.91C371.32 141.29 369.59 143.15 367.24 143.15L367.23 143.16Z" fill="white"/>
<path d="M83.69 69.28H146.68L165.1 0.710022H102.11L83.7 69.28H83.69ZM119.77 20.31H136.88L129.01 49.69H111.89L119.77 20.31Z" fill="white"/>
<path d="M282.51 69.28L300.93 0.710022H237.94L219.53 69.28H282.52H282.51ZM272.71 20.31L264.84 49.69H247.72L255.6 20.31H272.71Z" fill="white"/>
</g>
<defs>
<clipPath id="clip0_1101_6980">
<rect width="372.69" height="143.65" fill="white" transform="translate(0 0.650024)"/>
</clipPath>
</defs>
</svg>
