<?xml version="1.0" encoding="UTF-8" standalone="no"?>
<svg
   xmlns:dc="http://purl.org/dc/elements/1.1/"
   xmlns:cc="http://creativecommons.org/ns#"
   xmlns:rdf="http://www.w3.org/1999/02/22-rdf-syntax-ns#"
   xmlns:svg="http://www.w3.org/2000/svg"
   xmlns="http://www.w3.org/2000/svg"
   xmlns:sodipodi="http://sodipodi.sourceforge.net/DTD/sodipodi-0.dtd"
   xmlns:inkscape="http://www.inkscape.org/namespaces/inkscape"
   version="1.1"
   id="svg2"
   xml:space="preserve"
   width="533.61334"
   height="170.26666"
   viewBox="0 0 533.61334 170.26666"
   sodipodi:docname="US Mags_BLK.eps"><metadata
     id="metadata8"><rdf:RDF><cc:Work
         rdf:about=""><dc:format>image/svg+xml</dc:format><dc:type
           rdf:resource="http://purl.org/dc/dcmitype/StillImage" /></cc:Work></rdf:RDF></metadata><defs
     id="defs6" /><sodipodi:namedview
     pagecolor="#ffffff"
     bordercolor="#666666"
     borderopacity="1"
     objecttolerance="10"
     gridtolerance="10"
     guidetolerance="10"
     inkscape:pageopacity="0"
     inkscape:pageshadow="2"
     inkscape:window-width="640"
     inkscape:window-height="480"
     id="namedview4" /><g
     id="g10"
     inkscape:groupmode="layer"
     inkscape:label="ink_ext_XXXXXX"
     transform="matrix(1.3333333,0,0,-1.3333333,0,170.26667)"><g
       id="g12"
       transform="scale(0.1)"><path
         d="m 896.484,214.449 c 5.106,0 10.348,-0.25 15.664,-0.75 5.317,-0.527 10.493,-1.25 15.489,-2.14 5.031,-0.93 9.847,-2.028 14.449,-3.348 4.602,-1.32 8.742,-2.891 12.418,-4.711 l -4.359,-22.34 c -0.915,-4.68 -5.598,-7.64 -10.176,-6.308 -4.215,1.226 -8.688,2.296 -13.403,3.199 -7.996,1.539 -15.843,2.32 -23.621,2.32 -23.336,0 -41.215,-6.062 -53.593,-18.191 -12.383,-12.141 -18.594,-30.008 -18.594,-53.668 0,-23.6604 6.211,-41.5315 18.594,-53.6604 12.378,-12.1407 30.257,-18.2032 53.593,-18.2032 7.778,0 15.625,0.7813 23.621,2.3204 4.719,0.9023 9.192,1.9726 13.407,3.1914 4.578,1.3281 9.254,-1.6289 10.168,-6.3086 l 4.363,-22.3203 C 950.828,11.7109 946.688,10.1406 942.086,8.82031 937.484,7.5 932.668,6.35156 927.637,5.46094 922.641,4.53125 917.465,3.82031 912.148,3.32031 c -5.316,-0.5 -10.558,-0.75 -15.664,-0.75 -17.625,0 -33.183,2.64063 -46.671,7.96099 -13.524,5.3476 -24.872,12.6992 -34.11,22.1171 -9.207,9.4219 -16.164,20.5899 -20.875,33.4727 -4.711,12.918 -7.066,27.0508 -7.066,42.3909 0,15.34 2.355,29.468 7.066,42.347 4.711,12.922 11.668,24.09 20.875,33.512 9.238,9.379 20.586,16.77 34.11,22.09 13.488,5.309 29.046,7.988 46.671,7.988"
         style="fill:#ea1443;fill-opacity:1;fill-rule:nonzero;stroke:none"
         id="path14" /><path
         d="m 1121.77,210.77 h 26.6 c 4.53,0 8.2,-3.668 8.2,-8.188 V 79.9297 c 0,-11.668 -1.93,-22.2305 -5.82,-31.7578 -3.89,-9.5235 -9.42,-17.6602 -16.59,-24.4024 -7.17,-6.7812 -16.02,-11.9882 -26.55,-15.66794 -10.56,-3.71093 -22.37,-5.53125 -35.46,-5.53125 -13.31,0 -25.19,1.82032 -35.65,5.53125 -10.42,3.67974 -19.23,8.88674 -26.4,15.66794 -7.18,6.7422 -12.705,14.8789 -16.596,24.4024 -3.891,9.5273 -5.816,20.0898 -5.816,31.7578 V 202.582 c 0,4.52 3.671,8.188 8.199,8.188 h 26.603 c 4.52,0 8.19,-3.668 8.19,-8.188 V 77.8594 c 0,-12.918 3.47,-23.0078 10.42,-30.2891 6.96,-7.2812 17.31,-10.9219 31.05,-10.9219 13.7,0 24.05,3.6407 31,10.9219 6.96,7.2813 10.42,17.3711 10.42,30.2891 V 202.582 c 0,4.52 3.67,8.188 8.2,8.188"
         style="fill:#ea1443;fill-opacity:1;fill-rule:nonzero;stroke:none"
         id="path16" /><path
         d="m 1329.16,64.5898 c 0,-9 -1.85,-17.3085 -5.53,-24.871 -3.71,-7.5704 -8.85,-14.129 -15.52,-19.6602 -6.64,-5.5391 -14.7,-9.8203 -24.08,-12.88672 -9.42,-3.0625 -19.88,-4.60157 -31.33,-4.60157 -10.85,0 -21.77,1.17969 -32.72,3.53125 -8.46,1.82032 -16.39,4.27734 -23.82,7.37894 -3.76,1.5586 -5.65,5.8086 -4.59,9.7383 l 4.6,16.9414 c 1.26,4.6211 6.22,7.289 10.68,5.5507 5.15,-2.0117 10.65,-3.8007 16.52,-5.3906 9.09,-2.4609 18.48,-3.6719 28.08,-3.6719 10.24,0 18.59,2.1016 25.05,6.2813 6.42,4.2109 9.67,10.3086 9.67,18.2695 0,7.3789 -3.07,13.4102 -9.21,18.1211 -6.14,4.711 -15.56,9.6406 -28.26,14.7383 -9.03,3.7109 -16.98,7.5314 -23.94,11.5234 -7,3.996 -12.81,8.457 -17.52,13.348 -4.71,4.922 -8.35,10.422 -10.89,16.449 -2.56,6.031 -3.85,12.84 -3.85,20.41 0,18.84 6.39,33.332 19.2,43.461 12.77,10.129 29.94,15.199 51.42,15.199 11.06,0 21.19,-1.039 30.4,-3.07 7.1,-1.59 13.99,-3.867 20.7,-6.899 3.54,-1.601 5.36,-5.66 4.44,-9.441 l -4.11,-16.879 c -1.16,-4.769 -6.25,-7.519 -10.82,-5.711 -4.54,1.813 -9.21,3.371 -14.03,4.68 -7.89,2.172 -15.92,3.242 -24.12,3.242 -8.99,0 -16.27,-1.711 -21.8,-5.062 -5.53,-3.387 -8.28,-8.668 -8.28,-15.848 0,-3.242 0.46,-6.133 1.39,-8.602 0.89,-2.418 2.6,-4.738 5.07,-6.879 2.42,-2.14 5.67,-4.32 9.67,-6.46 3.99,-2.141 9.06,-4.571 15.2,-7.211 8.17,-3.489 15.98,-7.168 23.48,-11.059 7.45,-3.891 14.05,-8.379 19.8,-13.52 5.74,-5.109 10.35,-11.0308 13.81,-17.8081 3.49,-6.7422 5.24,-14.5235 5.24,-23.3321"
         style="fill:#ea1443;fill-opacity:1;fill-rule:nonzero;stroke:none"
         id="path18" /><path
         d="m 1501.11,202.582 v -17.723 c 0,-4.527 -3.67,-8.199 -8.2,-8.199 h -40.08 c -4.53,0 -8.2,-3.672 -8.2,-8.199 V 14.4414 c 0,-4.51952 -3.67,-8.1914 -8.2,-8.1914 h -26.6 c -4.53,0 -8.2,3.67188 -8.2,8.1914 V 168.461 c 0,4.527 -3.67,8.199 -8.2,8.199 h -40.12 c -4.53,0 -8.2,3.672 -8.2,8.199 v 17.723 c 0,4.52 3.67,8.188 8.2,8.188 h 139.6 c 4.53,0 8.2,-3.668 8.2,-8.188"
         style="fill:#ea1443;fill-opacity:1;fill-rule:nonzero;stroke:none"
         id="path20" /><path
         d="m 1615.97,36.332 c 10.03,0 18.77,1.8477 26.26,5.5274 7.46,3.7109 13.71,8.7695 18.74,15.1992 4.99,6.4609 8.74,14.0898 11.2,22.8711 2.46,8.8086 3.68,18.3398 3.68,28.5823 0,10.238 -1.22,19.726 -3.68,28.547 -2.46,8.812 -6.21,16.453 -11.2,22.871 -5.03,6.461 -11.28,11.519 -18.74,15.199 -7.49,3.711 -16.23,5.531 -26.26,5.531 -10.02,0 -18.8,-1.82 -26.26,-5.531 -7.46,-3.68 -13.7,-8.738 -18.73,-15.199 -5.03,-6.418 -8.74,-14.059 -11.21,-22.871 -2.46,-8.821 -3.67,-18.309 -3.67,-28.547 0,-10.2425 1.21,-19.7737 3.67,-28.5823 2.47,-8.7813 6.18,-16.4102 11.21,-22.8711 5.03,-6.4297 11.27,-11.4883 18.73,-15.1992 7.46,-3.6797 16.24,-5.5274 26.26,-5.5274 z m 102.87,72.18 c 0,-14.5628 -2.32,-28.2229 -6.92,-41.0003 -4.6,-12.8125 -11.24,-24.0117 -19.94,-33.6133 -8.71,-9.6289 -19.45,-17.2695 -32.26,-22.9101 -12.78,-5.59767 -27.37,-8.41799 -43.75,-8.41799 -16.38,0 -30.97,2.82032 -43.78,8.41799 -12.77,5.6406 -23.58,13.2812 -32.36,22.9101 -8.82,9.6016 -15.49,20.8008 -19.98,33.6133 -4.5,12.7774 -6.75,26.4375 -6.75,41.0003 0,14.308 2.25,27.937 6.75,40.82 4.49,12.918 11.16,24.156 19.98,33.789 8.78,9.641 19.59,17.238 32.36,22.867 12.81,5.641 27.4,8.461 43.78,8.461 16.38,0 30.97,-2.82 43.75,-8.461 12.81,-5.629 23.55,-13.226 32.26,-22.867 8.7,-9.633 15.34,-20.871 19.94,-33.789 4.6,-12.883 6.92,-26.512 6.92,-40.82"
         style="fill:#ea1443;fill-opacity:1;fill-rule:nonzero;stroke:none"
         id="path22" /><path
         d="m 1929.45,210.77 h 25.91 c 4.29,0 7.86,-3.309 8.18,-7.59 l 13.81,-188.1292 c 0.35,-4.7617 -3.41,-8.8008 -8.17,-8.8008 h -25.49 c -4.35,0 -7.95,3.39844 -8.19,7.7383 l -4.88,87.8907 c -0.47,8.441 -11.86,10.742 -15.56,3.133 L 1885.97,45.25 c -1.37,-2.8203 -4.23,-4.6094 -7.37,-4.6094 h -33.95 c -3.14,0 -6,1.7891 -7.37,4.6094 l -29.09,59.762 c -3.7,7.609 -15.09,5.308 -15.56,-3.133 l -4.88,-87.8907 C 1787.51,9.64844 1783.91,6.25 1779.56,6.25 h -25.49 c -4.76,0 -8.52,4.0391 -8.17,8.8008 l 13.85,188.1292 c 0.31,4.281 3.88,7.59 8.17,7.59 h 25.88 c 3.17,0 6.05,-1.821 7.41,-4.68 l 53.02,-111.758 c 2.97,-6.2422 11.86,-6.2422 14.82,0 l 52.99,111.758 c 1.36,2.859 4.24,4.68 7.41,4.68"
         style="fill:#ea1443;fill-opacity:1;fill-rule:nonzero;stroke:none"
         id="path24" /><path
         d="M 2277.2,91.5391 2304.44,204.5 c 0.89,3.68 4.18,6.27 7.97,6.27 h 26.34 c 5.43,0 9.36,-5.168 7.9,-10.399 L 2294.14,12.2383 c -0.99,-3.53908 -4.22,-5.9883 -7.9,-5.9883 h -31.15 c -3.68,0 -6.91,2.44922 -7.9,6 l -34.96,125.852 c -2.23,8 -13.58,8 -15.8,0 L 2161.47,12.25 c -0.99,-3.55078 -4.22,-6 -7.9,-6 h -31.15 c -3.68,0 -6.91,2.44922 -7.9,5.9883 l -52.54,188.1327 c -1.46,5.231 2.46,10.399 7.89,10.399 h 26.35 c 3.78,0 7.08,-2.59 7.97,-6.27 l 27.27,-112.9687 c 1.99,-8.2422 13.64,-8.4219 15.87,-0.25 l 31.08,113.4567 c 0.98,3.563 4.22,6.032 7.91,6.032 h 36.02 c 3.69,0 6.93,-2.469 7.91,-6.032 l 31.07,-113.4372 c 2.24,-8.1719 13.89,-7.9922 15.88,0.2383"
         style="fill:#ea1443;fill-opacity:1;fill-rule:nonzero;stroke:none"
         id="path26" /><path
         d="m 2503.74,14.4414 v 69.5977 c 0,4.5312 -3.67,8.1992 -8.2,8.1992 h -68.35 c -4.53,0 -8.2,-3.668 -8.2,-8.1992 V 14.4414 c 0,-4.51952 -3.67,-8.1914 -8.2,-8.1914 h -26.6 c -4.52,0 -8.2,3.67188 -8.2,8.1914 V 202.582 c 0,4.52 3.68,8.188 8.2,8.188 h 26.6 c 4.53,0 8.2,-3.668 8.2,-8.188 v -66.531 c 0,-4.531 3.67,-8.199 8.2,-8.199 h 68.35 c 4.53,0 8.2,3.668 8.2,8.199 v 66.531 c 0,4.52 3.67,8.188 8.19,8.188 h 26.6 c 4.53,0 8.2,-3.668 8.2,-8.188 V 14.4414 c 0,-4.51952 -3.67,-8.1914 -8.2,-8.1914 h -26.6 c -4.52,0 -8.19,3.67188 -8.19,8.1914"
         style="fill:#ea1443;fill-opacity:1;fill-rule:nonzero;stroke:none"
         id="path28" /><path
         d="m 2597.93,210.77 h 106.42 c 4.53,0 8.2,-3.668 8.2,-8.188 v -17.723 c 0,-4.527 -3.67,-8.199 -8.2,-8.199 h -63.43 c -4.52,0 -8.19,-3.672 -8.19,-8.199 v -33.02 c 0,-4.531 3.67,-8.203 8.19,-8.203 h 59.75 c 4.53,0 8.2,-3.668 8.2,-8.187 v -17.68 c 0,-4.5312 -3.67,-8.1991 -8.2,-8.1991 h -59.75 c -4.52,0 -8.19,-3.6719 -8.19,-8.2031 V 48.5195 c 0,-4.5312 3.67,-8.1992 8.19,-8.1992 h 64.35 c 4.53,0 8.2,-3.6719 8.2,-8.1992 V 14.4414 c 0,-4.51952 -3.67,-8.1914 -8.2,-8.1914 h -107.34 c -4.53,0 -8.2,3.67188 -8.2,8.1914 V 202.582 c 0,4.52 3.67,8.188 8.2,8.188"
         style="fill:#ea1443;fill-opacity:1;fill-rule:nonzero;stroke:none"
         id="path30" /><path
         d="m 2759.14,210.77 h 106.42 c 4.53,0 8.2,-3.668 8.2,-8.188 v -17.723 c 0,-4.527 -3.67,-8.199 -8.2,-8.199 h -63.43 c -4.52,0 -8.19,-3.672 -8.19,-8.199 v -33.02 c 0,-4.531 3.67,-8.203 8.19,-8.203 h 59.75 c 4.53,0 8.2,-3.668 8.2,-8.187 v -17.68 c 0,-4.5312 -3.67,-8.1991 -8.2,-8.1991 h -59.75 c -4.52,0 -8.19,-3.6719 -8.19,-8.2031 V 48.5195 c 0,-4.5312 3.67,-8.1992 8.19,-8.1992 h 64.36 c 4.52,0 8.19,-3.6719 8.19,-8.1992 V 14.4414 c 0,-4.51952 -3.67,-8.1914 -8.19,-8.1914 h -107.35 c -4.53,0 -8.2,3.67188 -8.2,8.1914 V 202.582 c 0,4.52 3.67,8.188 8.2,8.188"
         style="fill:#ea1443;fill-opacity:1;fill-rule:nonzero;stroke:none"
         id="path32" /><path
         d="M 2955.15,202.582 V 48.5195 c 0,-4.5312 3.67,-8.1992 8.19,-8.1992 h 59.75 c 4.53,0 8.2,-3.6719 8.2,-8.1992 V 14.4414 c 0,-4.51952 -3.67,-8.1914 -8.2,-8.1914 h -102.74 c -4.53,0 -8.2,3.67188 -8.2,8.1914 V 202.582 c 0,4.52 3.67,8.188 8.2,8.188 h 26.6 c 4.53,0 8.2,-3.668 8.2,-8.188"
         style="fill:#ea1443;fill-opacity:1;fill-rule:nonzero;stroke:none"
         id="path34" /><path
         d="m 3190.04,64.5898 c 0,-9 -1.82,-17.3085 -5.53,-24.871 -3.68,-7.5704 -8.85,-14.129 -15.49,-19.6602 -6.67,-5.5391 -14.7,-9.8203 -24.12,-12.88672 -9.42,-3.0625 -19.84,-4.60157 -31.33,-4.60157 -10.84,0 -21.73,1.17969 -32.68,3.53125 -8.46,1.82032 -16.41,4.27734 -23.83,7.36724 -3.75,1.5703 -5.64,5.8203 -4.57,9.75 l 4.59,16.9296 c 1.26,4.6211 6.22,7.3008 10.68,5.5508 5.13,-2 10.63,-3.789 16.48,-5.3789 9.14,-2.4609 18.49,-3.6719 28.12,-3.6719 10.24,0 18.55,2.1016 25.01,6.2813 6.46,4.2109 9.67,10.3086 9.67,18.2695 0,7.3789 -3.07,13.4102 -9.2,18.1211 -6.14,4.711 -15.56,9.6406 -28.26,14.7383 -8.99,3.7109 -16.99,7.5314 -23.95,11.5234 -6.95,3.996 -12.81,8.457 -17.48,13.348 -4.75,4.922 -8.35,10.422 -10.92,16.449 -2.57,6.031 -3.85,12.84 -3.85,20.41 0,18.84 6.42,33.332 19.19,43.461 12.81,10.129 29.94,15.199 51.46,15.199 11.06,0 21.19,-1.039 30.4,-3.07 7.07,-1.59 13.98,-3.867 20.7,-6.899 3.55,-1.601 5.36,-5.66 4.44,-9.449 l -4.11,-16.871 c -1.16,-4.781 -6.25,-7.531 -10.81,-5.719 -4.56,1.809 -9.25,3.379 -14.07,4.688 -7.89,2.172 -15.92,3.242 -24.09,3.242 -9.03,0 -16.27,-1.711 -21.8,-5.062 -5.53,-3.387 -8.32,-8.668 -8.32,-15.848 0,-3.242 0.47,-6.133 1.4,-8.602 0.92,-2.418 2.6,-4.738 5.06,-6.879 2.47,-2.14 5.68,-4.32 9.67,-6.46 4,-2.141 9.07,-4.571 15.2,-7.211 8.21,-3.489 16.02,-7.168 23.52,-11.059 7.45,-3.891 14.06,-8.379 19.8,-13.52 5.71,-5.109 10.31,-11.0308 13.81,-17.8081 3.46,-6.7422 5.21,-14.5235 5.21,-23.3321"
         style="fill:#ea1443;fill-opacity:1;fill-rule:nonzero;stroke:none"
         id="path36" /><path
         d="M 588.223,570.094 C 611.027,401.625 561.531,315.91 432.883,279.918 305.008,244.73 221.68,285.402 150.383,447.305 105.512,549.191 44.6719,742.242 1.36328,896.602 c -5.27344,18.789 5.19531,38.418 23.73052,44.511 39.3828,12.938 73.9609,23.481 98.2612,30.676 19.938,5.906 40.657,-6.008 45.575,-26.211 38.265,-157.148 93.586,-357.078 137.808,-463.914 21.27,-52.996 54.953,-75.605 87.825,-65.797 35.019,10.453 54.125,39.985 43.617,101.668 -20.211,116.485 -78.754,325.27 -133.539,481.668 -6.723,19.187 3.703,40.137 23.019,46.477 39.969,13.13 74.57,23.5 98.395,30.39 19.027,5.49 38.906,-5.19 44.773,-24.1 48.82,-157.482 99.84,-349.454 117.395,-481.876"
         style="fill:#211f1e;fill-opacity:1;fill-rule:nonzero;stroke:none"
         id="path38" /><path
         d="m 716.305,540.68 c 68.367,15.933 114.133,-12.309 125.445,-65.871 10.219,-48.528 -19.699,-98.856 -82.387,-113.477 -61.652,-14.461 -104.851,15.656 -117.633,65.762 -13.539,53.051 11.649,98.808 74.575,113.586"
         style="fill:#211f1e;fill-opacity:1;fill-rule:nonzero;stroke:none"
         id="path40" /><path
         d="m 976.852,1194.57 c 68.098,11.36 121.488,4.15 166.748,-15.86 14.83,-6.56 23.34,-22.44 21.09,-38.5 -3.31,-23.62 -6.66,-45.94 -9.54,-64.55 -3.55,-22.9 -27.14,-36.2 -48.89,-28.19 -26.28,9.68 -55.7,12.9 -81.99,8.58 -54.325,-8.92 -73.489,-44.6 -67.559,-77.761 7.449,-42.691 46.989,-67.324 139.139,-109.309 113.17,-50.808 157.11,-104.246 170.11,-202.273 14.99,-118.461 -45.36,-218.648 -184.12,-242.211 -54.53,-9.281 -120.184,-2.715 -171.391,16.246 -14.371,5.321 -23.586,19.422 -23.351,34.742 0.375,24.637 1.097,48.485 1.851,68.559 0.91,24.27 25.055,41.203 47.903,32.969 35.253,-12.707 73.218,-17.332 103.008,-12.164 50.87,8.867 73.38,42.199 66.61,84.91 -7.52,45.57 -35.63,70.625 -146.22,118.203 -103.355,44.156 -153.184,97.883 -171.23,185.777 -23.735,112.152 42.402,216.282 187.832,240.832"
         style="fill:#211f1e;fill-opacity:1;fill-rule:nonzero;stroke:none"
         id="path42" /><path
         d="m 1411.01,658.551 c 69.45,7.355 111.24,-26.313 115.87,-80.86 4.17,-49.414 -31.54,-95.671 -95.23,-102.425 -62.64,-6.727 -101.6,28.515 -108.11,79.812 -6.89,54.313 23.53,96.602 87.47,103.473"
         style="fill:#211f1e;fill-opacity:1;fill-rule:nonzero;stroke:none"
         id="path44" /><path
         d="m 2355.94,507.629 c -19.68,0.625 -46.08,1.371 -75.38,1.957 -20.33,0.406 -36.44,17.32 -35.75,37.648 1.21,35.973 3.23,95.118 5.66,163.793 1.52,43.114 -59.89,52.77 -71.5,11.219 -13.54,-48.484 -27.24,-98.621 -40.04,-147.031 -4.19,-15.832 -18.32,-26.84 -34.69,-27.067 -11.95,-0.168 -27.37,-0.437 -45.49,-0.894 -17.08,-0.434 -32.12,11.07 -36.23,27.652 -12.4,50.067 -25.37,101 -38.01,149.797 -10.77,41.551 -71.96,33.406 -71.69,-9.512 0.35,-56.382 0.63,-110.429 0.78,-157.035 0.06,-19.98 -15.96,-36.133 -35.94,-36.398 -19.93,-0.266 -46.46,-0.574 -75.28,-0.801 -19.83,-0.152 -36.15,15.535 -36.69,35.367 -5.33,192.649 -9.62,466.776 -11.51,671.886 -0.18,19.03 14.37,34.99 33.33,36.63 63.61,5.5 124.52,9.79 159.22,12.1 17.26,1.15 32.89,-10.02 37.46,-26.71 27.42,-99.93 51.9,-195.8 70.99,-273.699 8.98,-36.629 60.79,-37.136 70.52,-0.703 19.43,72.712 43.75,159.902 70.68,249.762 4.84,16.15 20.22,26.84 37.06,25.91 63.85,-3.57 123.75,-8.72 159.64,-12.08 19.3,-1.81 33.73,-18.28 32.91,-37.65 -7.79,-186.22 -22.18,-473.411 -32.58,-659.907 -1.1,-19.742 -17.71,-34.859 -37.47,-34.234"
         style="fill:#211f1e;fill-opacity:1;fill-rule:nonzero;stroke:none"
         id="path46" /><path
         d="m 2688.89,736.09 c 11.39,-1.367 22.84,-2.809 34.3,-4.34 22.32,-2.988 41.93,15.039 41,37.539 -1.48,35.774 -3.14,71.781 -4.88,106.953 -2.02,40.996 -59.84,47.801 -71.34,8.399 -9.8,-33.575 -19.75,-68.043 -29.56,-102.512 -6.1,-21.438 8.35,-43.383 30.48,-46.039 z m 197.64,447.18 c 18.89,-190.446 34.93,-500.868 37.53,-695.848 0.29,-22.133 -19.19,-39.324 -41.14,-36.477 -30.44,3.946 -58.11,7.246 -77.94,9.532 -17.9,2.066 -31.48,16.738 -32.1,34.746 -0.74,21.175 -1.44,44.437 -2.1,68.906 -0.48,17.926 -13.95,32.976 -31.74,35.273 -32.35,4.176 -64.64,8.133 -96.61,12.09 -18.06,2.235 -34.95,-9.262 -39.64,-26.847 -6.22,-23.348 -12.15,-45.54 -17.45,-65.688 -4.83,-18.352 -22.87,-29.922 -41.55,-26.574 -19.22,3.445 -45.11,8.133 -73.01,13.312 -21.05,3.907 -34.33,24.883 -28.56,45.504 53.15,190.047 141.48,470.411 209.39,652.501 5.49,14.7 19.87,24.11 35.55,23.55 65.57,-2.35 130.36,-7.9 166.67,-11.4 17.34,-1.68 30.98,-15.24 32.7,-32.58"
         style="fill:#211f1e;fill-opacity:1;fill-rule:nonzero;stroke:none"
         id="path48" /><path
         d="m 3224.48,711.422 c 2.95,16.441 6.9,38.129 11.7,63.488 3.71,19.61 22.56,32.637 42.21,29.125 73.8,-13.191 146.17,-29.422 186.49,-38.875 18.64,-4.375 30.71,-22.387 27.7,-41.301 -4.66,-29.222 -10.32,-58.386 -17.16,-84.964 -45.62,-173.731 -142.68,-289.426 -296.95,-255.793 -143.75,30.867 -226.94,168.679 -184.52,432.14 38.51,239.988 176.94,363.158 367.8,321.878 64.21,-14 117.47,-44.89 151.89,-82.21 11.4,-12.36 11.77,-31.41 1.99,-45.09 -14.86,-20.769 -28.95,-39.73 -40.48,-54.984 -13.18,-17.426 -38.62,-19.461 -54.17,-4.109 -20.43,20.16 -47.14,35.882 -75.99,42.238 -98.8,21.645 -163.83,-68.309 -191.33,-210.992 -35.34,-183.145 9.9,-248.946 57.07,-259.188 49.02,-10.609 86.15,30.719 106,90.77 6.76,20.465 -5.26,42.406 -26.26,47.265 -11.06,2.555 -24.06,5.559 -38.18,8.809 -18.93,4.351 -31.23,22.676 -27.81,41.793"
         style="fill:#211f1e;fill-opacity:1;fill-rule:nonzero;stroke:none"
         id="path50" /><path
         d="m 3850.06,1008.75 c 66.55,-20.262 111.63,-50.629 143.68,-88.82 10.49,-12.5 11.06,-30.645 1.8,-44.082 -13.59,-19.723 -26.62,-38.254 -37.54,-53.633 -13.36,-18.813 -40.31,-20.293 -56.16,-3.516 -19.51,20.66 -44.86,36.895 -70.74,44.844 -53.02,16.289 -86.19,-7.109 -95.63,-39.441 -12.3,-41.555 12.33,-81.25 76.87,-160.047 79.64,-96.129 95.69,-163.723 63.7,-257.282 -39.27,-112.765 -138.84,-175.293 -274.58,-134.394 -53.34,16.055 -109.53,51.215 -147.13,91.004 -10.54,11.16 -12.54,27.922 -5.5,41.566 11.33,21.926 22.61,42.989 32.23,60.641 11.6,21.289 40.71,25.758 57.5,8.265 26.12,-27.203 58.35,-48.367 87.61,-57.062 49.83,-14.777 85.06,4.984 97.98,46.254 13.55,44.152 -0.75,79.191 -79.24,171.148 -73.42,85.653 -94.23,155.926 -71.33,242.696 28.63,110.996 134.28,174.849 276.48,131.859"
         style="fill:#211f1e;fill-opacity:1;fill-rule:nonzero;stroke:none"
         id="path52" /><g
         id="g54"
         transform="scale(10)"><text
           transform="matrix(1,0,0,-1,319.797,0.623828)"
           style="font-variant:normal;font-weight:normal;font-size:2.5px;font-family:MyriadPro;-inkscape-font-specification:MyriadPro-Regular;writing-mode:lr-tb;fill:#231f20;fill-opacity:1;fill-rule:nonzero;stroke:none"
           id="text58"><tspan
             x="0 1.2424999"
             y="0"
             sodipodi:role="line"
             id="tspan56">TM</tspan></text></g></g></g></svg>
